<svg width="224" height="46" viewBox="0 0 224 46" fill="none" xmlns="http://www.w3.org/2000/svg">
<path d="M2.36881 9.54431H21.1387V14.4381H8.00598V19.5797H20.0547V24.4735H8.00598V29.8939H21.4175V34.7877H2.36881V9.54431Z" fill="#00B8B8"/>
<path d="M25.3776 9.54425H44.1475V14.4381H31.0148V19.5796H43.0634V24.4735H31.0148V29.8938H44.4263V34.7876H25.3776V9.54425Z" fill="#00B8B8"/>
<path d="M61.1123 35.4071C58.5311 35.4071 56.1978 34.8289 54.1123 33.6726C52.0474 32.5369 50.4264 30.9676 49.2494 28.9646C48.0724 26.941 47.4839 24.6696 47.4839 22.1504C47.4839 19.6313 48.0724 17.3702 49.2494 15.3673C50.4264 13.3437 52.0474 11.764 54.1123 10.6283C56.1978 9.47197 58.5311 8.8938 61.1123 8.8938C63.6934 8.8938 66.0164 9.47197 68.0813 10.6283C70.1668 11.764 71.7981 13.3437 72.9751 15.3673C74.1521 17.3702 74.7406 19.6313 74.7406 22.1504C74.7406 24.6696 74.1521 26.941 72.9751 28.9646C71.7981 30.9676 70.1668 32.5369 68.0813 33.6726C66.0164 34.8289 63.6934 35.4071 61.1123 35.4071ZM61.1123 30.3274C62.6196 30.3274 63.9825 29.9764 65.2008 29.2743C66.419 28.5723 67.3689 27.6018 68.0503 26.3628C68.7524 25.1032 69.1034 23.6991 69.1034 22.1504C69.1034 20.5811 68.7524 19.177 68.0503 17.9381C67.3689 16.6991 66.419 15.7286 65.2008 15.0265C63.9825 14.3245 62.6196 13.9735 61.1123 13.9735C59.6049 13.9735 58.2421 14.3245 57.0238 15.0265C55.8055 15.7286 54.8453 16.6991 54.1432 17.9381C53.4618 19.177 53.1211 20.5811 53.1211 22.1504C53.1211 23.6991 53.4618 25.1032 54.1432 26.3628C54.8453 27.6018 55.8055 28.5723 57.0238 29.2743C58.2421 29.9764 59.6049 30.3274 61.1123 30.3274Z" fill="#FFC737"/>
<path d="M88.4792 8.92478C90.3376 8.92478 92.0205 9.27581 93.5279 9.97788C95.0353 10.6799 96.2329 11.6608 97.1208 12.9204C98.0294 14.1593 98.5249 15.5737 98.6075 17.1637H92.7845C92.6193 16.0487 92.1341 15.1814 91.3288 14.5619C90.5235 13.9425 89.4497 13.6327 88.1075 13.6327C86.8273 13.6327 85.8258 13.8702 85.1031 14.3451C84.3804 14.7994 84.019 15.4189 84.019 16.2035C84.019 16.823 84.2462 17.3289 84.7005 17.7212C85.1547 18.1136 85.8465 18.4646 86.7757 18.7743C87.7255 19.0634 89.0987 19.3938 90.8951 19.7655C93.6828 20.3437 95.6754 21.3038 96.873 22.646C98.0913 23.9676 98.7005 25.6298 98.7005 27.6327C98.7005 29.2021 98.2462 30.5752 97.3376 31.7522C96.4497 32.9292 95.2314 33.8274 93.6828 34.4469C92.1341 35.087 90.4099 35.4071 88.5102 35.4071C86.4453 35.4071 84.5869 35.0457 82.935 34.323C81.3037 33.6209 80.0028 32.6091 79.0323 31.2876C78.0825 29.9661 77.5662 28.4174 77.4836 26.6416H83.2757C83.4409 27.8599 84.019 28.8407 85.0102 29.5841C86.022 30.3068 87.3229 30.6681 88.9128 30.6681C90.0692 30.6681 91.019 30.41 91.7624 29.8938C92.5264 29.3776 92.9084 28.7065 92.9084 27.8805C92.9084 27.2198 92.7019 26.6726 92.289 26.2389C91.8966 25.8053 91.2565 25.4336 90.3686 25.1239C89.5013 24.8142 88.2831 24.5147 86.7137 24.2257C83.8848 23.6888 81.7683 22.7906 80.3642 21.531C78.96 20.2714 78.258 18.4956 78.258 16.2035C78.258 14.7168 78.7019 13.4263 79.5898 12.3319C80.4984 11.2375 81.727 10.4012 83.2757 9.82301C84.8243 9.22419 86.5589 8.92478 88.4792 8.92478Z" fill="#00B8B8"/>
<path d="M129.664 30.0236H119.876L118.111 34.9174H112.288L122.075 9.67401H127.929L137.717 34.9174H131.429L129.664 30.0236ZM127.929 25.1298L124.77 16.3333L121.611 25.1298H127.929Z" fill="#006D6D"/>
<path d="M146.585 35.3508C144.871 35.3508 143.343 34.9378 142.001 34.1118C140.659 33.3065 139.616 32.1811 138.873 30.7357C138.129 29.2903 137.757 27.659 137.757 25.8419C137.757 24.0248 138.129 22.3935 138.873 20.9481C139.616 19.5027 140.659 18.3773 142.001 17.572C143.343 16.746 144.871 16.3331 146.585 16.3331C148.918 16.3331 150.653 17.0971 151.788 18.6251V8.89943H157.302V34.9171H151.788V33.0587C150.653 34.5867 148.918 35.3508 146.585 35.3508ZM147.452 30.6428C148.794 30.6428 149.868 30.1988 150.673 29.3109C151.479 28.4024 151.881 27.246 151.881 25.8419C151.881 24.4378 151.479 23.2918 150.673 22.4039C149.868 21.4953 148.794 21.041 147.452 21.041C146.151 21.041 145.108 21.4953 144.324 22.4039C143.539 23.2918 143.147 24.4378 143.147 25.8419C143.147 27.246 143.539 28.4024 144.324 29.3109C145.108 30.1988 146.151 30.6428 147.452 30.6428Z" fill="#006D6D"/>
<path d="M160.029 16.7662H165.542V18.5007C166.099 17.7573 166.729 17.2101 167.431 16.8591C168.154 16.5081 169.011 16.3326 170.002 16.3326C171.138 16.3326 172.17 16.5597 173.099 17.014C174.029 17.4476 174.793 18.0877 175.391 18.9343C176.073 18.0671 176.909 17.4166 177.9 16.983C178.891 16.5494 180.068 16.3326 181.431 16.3326C182.815 16.3326 184.033 16.663 185.086 17.3237C186.139 17.9638 186.955 18.893 187.533 20.1113C188.111 21.3296 188.4 22.7647 188.4 24.4166V34.9166H182.887V25.3458C182.887 23.9624 182.629 22.9093 182.113 22.1866C181.596 21.4432 180.832 21.0715 179.821 21.0715C178.933 21.0715 178.241 21.4122 177.745 22.0936C177.27 22.775 177.012 23.7662 176.971 25.0671V34.9166H171.458V25.3458C171.458 23.9624 171.2 22.9093 170.683 22.1866C170.167 21.4432 169.403 21.0715 168.391 21.0715C167.503 21.0715 166.812 21.4122 166.316 22.0936C165.841 22.775 165.583 23.7662 165.542 25.0671V34.9166H160.029V16.7662Z" fill="#006D6D"/>
<path d="M195.007 7.99973C195.978 7.99973 196.783 8.31979 197.423 8.95991C198.063 9.60003 198.383 10.4053 198.383 11.3758C198.383 12.3463 198.063 13.1516 197.423 13.7918C196.783 14.4319 195.978 14.7519 195.007 14.7519C194.037 14.7519 193.231 14.4319 192.591 13.7918C191.951 13.1516 191.631 12.3463 191.631 11.3758C191.631 10.4053 191.951 9.60003 192.591 8.95991C193.231 8.31979 194.037 7.99973 195.007 7.99973ZM197.764 34.9776H192.25V16.7652H197.764V34.9776Z" fill="#006D6D"/>
<path d="M203.367 16.7633H208.881V18.6217C210.016 17.0936 211.709 16.3296 213.96 16.3296C215.364 16.3296 216.603 16.66 217.677 17.3208C218.751 17.9609 219.577 18.8901 220.155 20.1084C220.754 21.3267 221.053 22.7618 221.053 24.4137V34.9137H215.54V25.3429C215.54 23.9594 215.261 22.9063 214.704 22.1836C214.167 21.4403 213.382 21.0686 212.35 21.0686C211.276 21.0686 210.429 21.4712 209.81 22.2765C209.19 23.0819 208.881 24.1866 208.881 25.5907V34.9137H203.367V16.7633Z" fill="#006D6D"/>
</svg>
