<svg width="49" height="39" viewBox="0 0 49 39" fill="none" xmlns="http://www.w3.org/2000/svg">
<path d="M2.78882 33.2217H7.21417V34.2768H4.11788V35.3853H6.95858V36.4404H4.11788V37.609H7.27989V38.6641H2.78882V33.2217Z" fill="#00B8B8"/>
<path d="M8.73515 33.2217H13.1605V34.2768H10.0642V35.3853H12.9049V36.4404H10.0642V37.609H13.2262V38.6641H8.73515V33.2217Z" fill="#00B8B8"/>
<path d="M17.8383 38.7978C17.2298 38.7978 16.6797 38.6731 16.188 38.4238C15.7011 38.179 15.319 37.8407 15.0415 37.4088C14.764 36.9725 14.6252 36.4828 14.6252 35.9397C14.6252 35.3966 14.764 34.9091 15.0415 34.4773C15.319 34.041 15.7011 33.7005 16.188 33.4556C16.6797 33.2063 17.2298 33.0816 17.8383 33.0816C18.4469 33.0816 18.9946 33.2063 19.4814 33.4556C19.9731 33.7005 20.3577 34.041 20.6352 34.4773C20.9127 34.9091 21.0515 35.3966 21.0515 35.9397C21.0515 36.4828 20.9127 36.9725 20.6352 37.4088C20.3577 37.8407 19.9731 38.179 19.4814 38.4238C18.9946 38.6731 18.4469 38.7978 17.8383 38.7978ZM17.8383 37.7026C18.1937 37.7026 18.515 37.627 18.8023 37.4756C19.0895 37.3242 19.3135 37.115 19.4741 36.8479C19.6396 36.5763 19.7224 36.2736 19.7224 35.9397C19.7224 35.6014 19.6396 35.2987 19.4741 35.0316C19.3135 34.7644 19.0895 34.5552 18.8023 34.4038C18.515 34.2525 18.1937 34.1768 17.8383 34.1768C17.483 34.1768 17.1616 34.2525 16.8744 34.4038C16.5872 34.5552 16.3608 34.7644 16.1953 35.0316C16.0346 35.2987 15.9543 35.6014 15.9543 35.9397C15.9543 36.2736 16.0346 36.5763 16.1953 36.8479C16.3608 37.115 16.5872 37.3242 16.8744 37.4756C17.1616 37.627 17.483 37.7026 17.8383 37.7026Z" fill="#FFC737"/>
<path d="M24.8645 33.0882C25.3027 33.0882 25.6994 33.1639 26.0548 33.3153C26.4102 33.4667 26.6926 33.6781 26.9019 33.9497C27.1161 34.2168 27.233 34.5217 27.2525 34.8645H25.8796C25.8406 34.6241 25.7262 34.4371 25.5364 34.3036C25.3465 34.17 25.0933 34.1033 24.7769 34.1033C24.475 34.1033 24.2389 34.1545 24.0685 34.2569C23.8981 34.3548 23.8129 34.4883 23.8129 34.6575C23.8129 34.7911 23.8665 34.9001 23.9736 34.9847C24.0807 35.0693 24.2438 35.145 24.4629 35.2118C24.6868 35.2741 25.0106 35.3453 25.4341 35.4255C26.0913 35.5501 26.5611 35.7571 26.8435 36.0465C27.1307 36.3314 27.2744 36.6898 27.2744 37.1216C27.2744 37.4599 27.1673 37.756 26.953 38.0097C26.7437 38.2635 26.4565 38.4572 26.0913 38.5907C25.7262 38.7287 25.3197 38.7977 24.8718 38.7977C24.385 38.7977 23.9468 38.7198 23.5574 38.564C23.1728 38.4126 22.8661 38.1945 22.6372 37.9096C22.4133 37.6247 22.2916 37.2908 22.2721 36.9079H23.6377C23.6766 37.1706 23.8129 37.382 24.0466 37.5423C24.2852 37.6981 24.5919 37.776 24.9668 37.776C25.2394 37.776 25.4633 37.7204 25.6386 37.6091C25.8187 37.4978 25.9088 37.3531 25.9088 37.175C25.9088 37.0326 25.8601 36.9146 25.7627 36.8211C25.6702 36.7276 25.5193 36.6475 25.31 36.5807C25.1055 36.5139 24.8183 36.4494 24.4483 36.3871C23.7813 36.2713 23.2823 36.0776 22.9512 35.8061C22.6202 35.5345 22.4547 35.1517 22.4547 34.6575C22.4547 34.337 22.5593 34.0587 22.7687 33.8228C22.9829 33.5869 23.2726 33.4066 23.6377 33.2819C24.0028 33.1528 24.4118 33.0882 24.8645 33.0882Z" fill="#00B8B8"/>
<path d="M9.8457 11.4357C9.8457 11.4357 4.21387 12.5313 4.21387 15.1876V20.4386H9.8457V24.6368H4.21387V26.9767C0.00108668 24.9891 0 21.7501 0 21.7501V14.8009C0.00015131 14.7434 0.0387409 7.42003 9.8457 7.42003V11.4357Z" fill="black"/>
<path d="M21.4347 3.91309C21.4004 3.91333 15.1818 3.96219 15.1818 7.51562V27.4189C13.6911 27.5545 12.3483 27.8031 11.0275 27.9775V7.42188C11.0275 7.38636 11.0527 6.6787e-05 21.4347 0V3.91309Z" fill="black"/>
<path d="M26.867 0C35.5218 0.000163457 35.8459 7.49917 35.8485 7.56348V39C35.7919 38.9897 35.7345 38.9807 35.6776 38.9697C33.893 38.6261 32.5893 38.1028 31.5907 37.4658V7.62402C31.5907 4.50104 27.1561 4.2168 27.1561 4.2168V31.666C26.2556 30.3629 25.0276 29.1768 22.7342 28.3799L22.7205 0H26.867Z" fill="black"/>
<path d="M41.7323 33.1998C41.7742 33.1961 44.5261 32.9415 44.5262 30.3346V8.71933H48.5623V31.4547C48.5623 31.4547 48.3185 37.816 41.0067 37.816H37.5184L37.5379 8.71933H41.7323V33.1998Z" fill="black"/>
</svg>
