<svg width="31" height="31" viewBox="0 0 31 31" fill="none" xmlns="http://www.w3.org/2000/svg">
<path d="M5.16634 25.8333H25.833C26.5181 25.8333 27.1752 25.5612 27.6597 25.0767C28.1442 24.5922 28.4163 23.9351 28.4163 23.25V10.3333C28.4163 9.64819 28.1442 8.99111 27.6597 8.50664C27.1752 8.02217 26.5181 7.75 25.833 7.75H15.5901C15.1646 7.7478 14.7462 7.64053 14.3722 7.43773C13.9981 7.23492 13.6799 6.94287 13.4459 6.5875L12.3868 5.0375C12.1527 4.68213 11.8346 4.39008 11.4605 4.18727C11.0864 3.98447 10.6681 3.8772 10.2426 3.875H5.16634C4.4812 3.875 3.82412 4.14717 3.33965 4.63164C2.85518 5.11611 2.58301 5.77319 2.58301 6.45833V23.25C2.58301 24.6708 3.74551 25.8333 5.16634 25.8333Z" stroke="black" stroke-width="1.25" stroke-linecap="round" stroke-linejoin="round"/>
</svg>
