<svg width="41" height="40" viewBox="0 0 41 40" fill="none" xmlns="http://www.w3.org/2000/svg">
<rect x="0.213379" y="0.253418" width="40" height="39" rx="19.5" fill="#D9D9D9"/>
<path d="M16.7134 21.7534C17.3764 21.7534 18.0123 21.49 18.4811 21.0212C18.95 20.5523 19.2134 19.9165 19.2134 19.2534C19.2134 17.8734 18.7134 17.2534 18.2134 16.2534C17.1414 14.1104 17.9894 12.1994 20.2134 10.2534C20.7134 12.7534 22.2134 15.1534 24.2134 16.7534C26.2134 18.3534 27.2134 20.2534 27.2134 22.2534C27.2134 23.1727 27.0323 24.0829 26.6805 24.9322C26.3288 25.7815 25.8131 26.5532 25.1631 27.2032C24.5131 27.8532 23.7414 28.3688 22.8922 28.7206C22.0429 29.0724 21.1326 29.2534 20.2134 29.2534C19.2941 29.2534 18.3839 29.0724 17.5346 28.7206C16.6853 28.3688 15.9136 27.8532 15.2636 27.2032C14.6136 26.5532 14.098 25.7815 13.7462 24.9322C13.3944 24.0829 13.2134 23.1727 13.2134 22.2534C13.2134 21.1004 13.6464 19.9594 14.2134 19.2534C14.2134 19.9165 14.4768 20.5523 14.9456 21.0212C15.4145 21.49 16.0503 21.7534 16.7134 21.7534Z" stroke="black" stroke-width="2" stroke-linecap="round" stroke-linejoin="round"/>
</svg>
