<svg width="15" height="19" viewBox="0 0 15 19" fill="none" xmlns="http://www.w3.org/2000/svg">
<path d="M8.57401 11.355L9.36485 8.40352C9.80161 6.77348 8.83428 5.09801 7.20424 4.66124C5.57421 4.22448 3.89874 5.19181 3.46197 6.82184L1.48488 14.2004C1.04811 15.8305 2.01545 17.506 3.64548 17.9427C4.394 18.1433 5.1521 18.0478 5.79544 17.728C6.19025 17.5317 6.54184 17.251 6.82146 16.9024M6.41341 7.61268L5.62257 10.5641C5.18581 12.1942 6.15314 13.8696 7.78318 14.3064C9.41321 14.7432 11.0887 13.7758 11.5255 12.1458L13.5025 4.76719C13.9393 3.13716 12.972 1.46168 11.3419 1.02492C10.5934 0.824353 9.83532 0.919869 9.19198 1.23967C8.79717 1.43594 8.44558 1.71667 8.16596 2.06528" stroke="black" stroke-width="1.25" stroke-linecap="round"/>
</svg>
